<svg xmlns="http://www.w3.org/2000/svg" viewBox="0 0 24 24"><path d="M12 2C6.481 2 2 6.481 2 12a10 10 0 0 0 6.352 9.315c-.093-.797-.167-2 .037-2.87.185-.778 1.167-4.963 1.167-4.963s-.297-.593-.297-1.482c0-1.389.815-2.426 1.815-2.426.852 0 1.26.648 1.26 1.408 0 .851-.538 2.148-.834 3.333-.24 1 .5 1.815 1.482 1.815 1.777 0 3.148-1.87 3.148-4.574 0-2.39-1.723-4.075-4.186-4.075-2.851 0-4.518 2.13-4.518 4.334 0 .852.333 1.778.74 2.278a.322.322 0 0 1 .075.277c-.056.315-.222.982-.26 1.13-.055.185-.148.222-.333.13-1.24-.574-2.037-2.408-2.037-3.87 0-3.149 2.296-6.056 6.611-6.056 3.463 0 6.167 2.463 6.167 5.778 0 3.444-2.167 6.222-5.185 6.222-1.019 0-1.963-.519-2.297-1.148 0 0-.5 1.907-.63 2.37-.221.87-.833 1.963-1.24 2.63A9.81 9.81 0 0 0 12 22c5.518 0 10-4.482 10-10 0-5.519-4.482-10-10-10Z"></path></svg>