<svg xmlns="http://www.w3.org/2000/svg" view-box="0 0 24 24"><path fill-rule="evenodd" d="M4.222 6.277c1.434 0 2.307-.957 2.307-2.138C6.5 2.928 5.656 2 4.279 2 2.9 2 2 2.93 2 4.139c0 1.18.872 2.138 2.222 2.138Zm-2.11 1.686v13.756h4.276V7.963H2.113Zm6.722 0a92.13 92.13 0 0 1 .113 4.388v9.368h4.277v-7.934c0-.393.027-.787.14-1.068.31-.787 1.013-1.603 2.194-1.603 1.547 0 2.167 1.21 2.167 2.982v7.623H22v-8.13c0-4.05-2.109-5.935-4.922-5.935-2.307 0-3.686 1.322-4.248 2.222h-.085l-.198-1.913H8.834Z" clip-rule="evenodd"></path></svg>